<svg width="27" height="28" viewBox="0 0 27 28" fill="none" xmlns="http://www.w3.org/2000/svg">
<path d="M24.3514 11.4562H23.4821V11.409H13.7699V15.9545H19.8686C18.9789 18.6005 16.588 20.4999 13.7699 20.4999C10.1942 20.4999 7.29506 17.4471 7.29506 13.6818C7.29506 9.91641 10.1942 6.86357 13.7699 6.86357C15.4204 6.86357 16.922 7.51925 18.0654 8.59027L21.1177 5.37607C19.1904 3.48459 16.6123 2.31812 13.7699 2.31812C7.81035 2.31812 2.97852 7.40618 2.97852 13.6818C2.97852 19.9573 7.81035 25.0454 13.7699 25.0454C19.7294 25.0454 24.5613 19.9573 24.5613 13.6818C24.5613 12.9198 24.4868 12.1761 24.3514 11.4562Z" fill="#FFC107"/>
<path d="M4.22266 8.39255L7.76816 11.1306C8.72751 8.62948 11.0509 6.86357 13.7698 6.86357C15.4203 6.86357 16.9219 7.51925 18.0653 8.59027L21.1176 5.37607C19.1903 3.48459 16.6122 2.31812 13.7698 2.31812C9.62482 2.31812 6.03021 4.78232 4.22266 8.39255Z" fill="#FF3D00"/>
<path d="M13.7699 25.0455C16.5573 25.0455 19.09 23.9222 21.0049 22.0955L17.665 19.1193C16.5451 20.0161 15.1768 20.5012 13.7699 20.5C10.963 20.5 8.57975 18.6153 7.68191 15.9852L4.16284 18.8403C5.94881 22.5205 9.57579 25.0455 13.7699 25.0455Z" fill="#4CAF50"/>
<path d="M24.3513 11.4562H23.482V11.4091H13.7698V15.9545H19.8685C19.4429 17.2138 18.6763 18.3143 17.6633 19.1199L17.6649 19.1187L21.0048 22.0949C20.7685 22.321 24.5611 19.3636 24.5611 13.6818C24.5611 12.9199 24.4867 12.1761 24.3513 11.4562Z" fill="#1976D2"/>
</svg>
