<svg width="16" height="16" viewBox="0 0 16 16" fill="none" xmlns="http://www.w3.org/2000/svg">
<path fill-rule="evenodd" clip-rule="evenodd" d="M12 5.66667H11.3334V4.33333C11.3334 2.49333 9.84002 1 8.00002 1C6.48002 1 5.15335 2.02667 4.77335 3.5C4.68002 3.86 4.89335 4.22 5.25335 4.31333C5.60669 4.40667 5.97335 4.19333 6.06669 3.83333C6.29335 2.95333 7.08669 2.33333 8.00002 2.33333C9.10002 2.33333 10 3.23333 10 4.33333V5.66667H4.00002C3.26669 5.66667 2.66669 6.26667 2.66669 7V13.6667C2.66669 14.4 3.26669 15 4.00002 15H12C12.7334 15 13.3334 14.4 13.3334 13.6667V7C13.3334 6.26667 12.7334 5.66667 12 5.66667ZM8.00002 9C7.26669 9 6.66669 9.6 6.66669 10.3333C6.66669 11.0667 7.26669 11.6667 8.00002 11.6667C8.73335 11.6667 9.33335 11.0667 9.33335 10.3333C9.33335 9.6 8.73335 9 8.00002 9ZM11.3334 13.6667C11.7 13.6667 12 13.3667 12 13V7.66667C12 7.3 11.7 7 11.3334 7H4.66669C4.30002 7 4.00002 7.3 4.00002 7.66667V13C4.00002 13.3667 4.30002 13.6667 4.66669 13.6667H11.3334Z" fill="#828282"/>
</svg>
